<mxfile host="ac.draw.io" modified="2023-01-27T17:20:09.941Z" agent="5.0 (Windows NT 10.0; Win64; x64) AppleWebKit/537.36 (KHTML, like Gecko) Chrome/109.0.0.0 Safari/537.36" etag="jW-rRkfQCVnDh27UCUXO" version="20.8.13" type="embed"><diagram id="ijRAcNG_xyvAAmmFcgrQ" name="Seite-1"><mxGraphModel dx="1434" dy="813" grid="1" gridSize="10" guides="1" tooltips="1" connect="1" arrows="1" fold="1" page="1" pageScale="1" pageWidth="827" pageHeight="1169" math="0" shadow="0"><root><mxCell id="0"/><mxCell id="1" parent="0"/><mxCell id="78bXQyf61V3LpKi4EcEU-1" style="shape=rect;verticalAlign=top;align=left;fontSize=12;fontFamily=Helvetica;shadow=0;strokeWidth=2;fillColor=#FFFFFF;strokeColor=#000000;opacity=100.0;gliffyId=61;" vertex="1" parent="1"><mxGeometry x="200" y="389" width="160" height="76" as="geometry"/></mxCell><mxCell id="78bXQyf61V3LpKi4EcEU-2" value="&lt;div style='width: 157.0px;height:auto;word-break: break-word;'&gt;&lt;div align=&quot;center&quot;&gt;&lt;span style=&quot;font-family: Arial; font-size: 12px; font-weight: normal; text-decoration: underline; line-height: 14px;&quot;&gt;load_phase_deletion_detection_rule&lt;/span&gt;&lt;/div&gt;&lt;/div&gt;" style="shape=rect;shadow=0;strokeWidth=2;fillColor=#FFFFFF;strokeColor=#000000;opacity=100.0;html=1;nl2Br=0;verticalAlign=top;align=center;spacingLeft=6.0;spacingRight=6;spacingTop=1.0;spacingBottom=8;whiteSpace=wrap;gliffyId=62;" vertex="1" parent="78bXQyf61V3LpKi4EcEU-1"><mxGeometry width="160" height="44" as="geometry"/></mxCell><mxCell id="78bXQyf61V3LpKi4EcEU-3" value="&lt;div style='width: 157.0px;height:auto;word-break: break-word;'&gt;&lt;div align=&quot;left&quot;&gt;&lt;span style=&quot;font-family: Arial; font-size: 12px; font-weight: normal; text-decoration: none; line-height: 14px;&quot;&gt;Name&lt;/span&gt;&lt;/div&gt;&lt;div align=&quot;left&quot;&gt;&lt;span style=&quot;font-family: Arial; font-size: 12px; font-weight: normal; text-decoration: none; line-height: 14px;&quot;&gt;join path&lt;/span&gt;&lt;/div&gt;&lt;/div&gt;" style="shape=rect;shadow=0;strokeWidth=2;fillColor=#FFFFFF;strokeColor=#000000;opacity=100.0;html=1;nl2Br=0;verticalAlign=top;align=left;spacingLeft=0.0;spacingRight=0;spacingTop=-5.0;spacingBottom=2;whiteSpace=wrap;gliffyId=64;" vertex="1" parent="78bXQyf61V3LpKi4EcEU-1"><mxGeometry y="44" width="160" height="32" as="geometry"/></mxCell><mxCell id="78bXQyf61V3LpKi4EcEU-4" style="shape=rect;verticalAlign=top;align=left;fontSize=12;fontFamily=Helvetica;shadow=0;strokeWidth=2;fillColor=#FFFFFF;strokeColor=#000000;opacity=100.0;gliffyId=2;" vertex="1" parent="1"><mxGeometry x="20" y="32" width="140" height="75" as="geometry"/></mxCell><mxCell id="78bXQyf61V3LpKi4EcEU-5" value="&lt;div style='width: 137.0px;height:auto;word-break: break-word;'&gt;&lt;div align=&quot;center&quot;&gt;&lt;span style=&quot;font-family: Arial; font-size: 12px; font-weight: normal; text-decoration: underline; line-height: 14px;&quot;&gt;pipeline&lt;/span&gt;&lt;/div&gt;&lt;/div&gt;" style="shape=rect;shadow=0;strokeWidth=2;fillColor=#FFFFFF;strokeColor=#000000;opacity=100.0;html=1;nl2Br=0;verticalAlign=top;align=center;spacingLeft=6.0;spacingRight=6;spacingTop=1.0;spacingBottom=8;whiteSpace=wrap;gliffyId=3;" vertex="1" parent="78bXQyf61V3LpKi4EcEU-4"><mxGeometry width="140" height="30" as="geometry"/></mxCell><mxCell id="78bXQyf61V3LpKi4EcEU-6" value="&lt;div style='width: 137.0px;height:auto;word-break: break-word;'&gt;&lt;div align=&quot;left&quot;&gt;&lt;span style=&quot;font-family: Arial; font-size: 12px; font-weight: normal; text-decoration: none; line-height: 14px;&quot; class=&quot;&quot;&gt;Name&lt;/span&gt;&lt;/div&gt;&lt;/div&gt;" style="shape=rect;shadow=0;strokeWidth=2;fillColor=#FFFFFF;strokeColor=#000000;opacity=100.0;html=1;nl2Br=0;verticalAlign=top;align=left;spacingLeft=0.0;spacingRight=0;spacingTop=-5.0;spacingBottom=2;whiteSpace=wrap;gliffyId=5;" vertex="1" parent="78bXQyf61V3LpKi4EcEU-4"><mxGeometry y="30" width="140" height="45" as="geometry"/></mxCell><mxCell id="78bXQyf61V3LpKi4EcEU-7" style="shape=rect;verticalAlign=top;align=left;fontSize=12;fontFamily=Helvetica;shadow=0;strokeWidth=2;fillColor=#FFFFFF;strokeColor=#000000;opacity=100.0;gliffyId=7;" vertex="1" parent="1"><mxGeometry x="240" y="32" width="200" height="76" as="geometry"/></mxCell><mxCell id="78bXQyf61V3LpKi4EcEU-8" value="&lt;div style='width: 197.0px;height:auto;word-break: break-word;'&gt;&lt;div align=&quot;center&quot;&gt;&lt;span style=&quot;font-family: Arial; font-size: 12px; font-weight: normal; text-decoration: underline; line-height: 14px;&quot; class=&quot;&quot;&gt;field&lt;/span&gt;&lt;/div&gt;&lt;/div&gt;" style="shape=rect;shadow=0;strokeWidth=2;fillColor=#FFFFFF;strokeColor=#000000;opacity=100.0;html=1;nl2Br=0;verticalAlign=top;align=center;spacingLeft=6.0;spacingRight=6;spacingTop=1.0;spacingBottom=8;whiteSpace=wrap;gliffyId=8;" vertex="1" parent="78bXQyf61V3LpKi4EcEU-7"><mxGeometry width="200" height="30" as="geometry"/></mxCell><mxCell id="78bXQyf61V3LpKi4EcEU-9" value="&lt;div style='width: 197.0px;height:auto;word-break: break-word;'&gt;&lt;div align=&quot;left&quot;&gt;&lt;span style=&quot;font-family: Arial; font-size: 12px; font-weight: normal; text-decoration: none; line-height: 14px;&quot;&gt;Name&lt;/span&gt;&lt;/div&gt;&lt;div align=&quot;left&quot;&gt;&lt;span style=&quot;font-family: Arial; font-size: 12px; font-weight: normal; text-decoration: none; line-height: 14px;&quot;&gt;type&lt;/span&gt;&lt;/div&gt;&lt;div align=&quot;left&quot;&gt;&lt;span style=&quot;font-family: Arial; font-size: 12px; font-weight: normal; text-decoration: none; line-height: 14px;&quot;&gt;parsing properties&lt;/span&gt;&lt;/div&gt;&lt;/div&gt;" style="shape=rect;shadow=0;strokeWidth=2;fillColor=#FFFFFF;strokeColor=#000000;opacity=100.0;html=1;nl2Br=0;verticalAlign=top;align=left;spacingLeft=0.0;spacingRight=0;spacingTop=-5.0;spacingBottom=2;whiteSpace=wrap;gliffyId=10;" vertex="1" parent="78bXQyf61V3LpKi4EcEU-7"><mxGeometry y="30" width="200" height="46" as="geometry"/></mxCell><mxCell id="78bXQyf61V3LpKi4EcEU-10" style="shape=rect;verticalAlign=top;align=left;fontSize=12;fontFamily=Helvetica;shadow=0;strokeWidth=2;fillColor=#FFFFFF;strokeColor=#000000;opacity=100.0;gliffyId=12;" vertex="1" parent="1"><mxGeometry x="500" y="217.5" width="200" height="120" as="geometry"/></mxCell><mxCell id="78bXQyf61V3LpKi4EcEU-11" value="&lt;div style='width: 197.0px;height:auto;word-break: break-word;'&gt;&lt;div align=&quot;center&quot;&gt;&lt;span style=&quot;font-family: Arial; font-size: 12px; font-weight: normal; text-decoration: underline; line-height: 14px;&quot;&gt;data vault table&lt;/span&gt;&lt;/div&gt;&lt;/div&gt;" style="shape=rect;shadow=0;strokeWidth=2;fillColor=#FFFFFF;strokeColor=#000000;opacity=100.0;html=1;nl2Br=0;verticalAlign=top;align=center;spacingLeft=6.0;spacingRight=6;spacingTop=1.0;spacingBottom=8;whiteSpace=wrap;gliffyId=13;" vertex="1" parent="78bXQyf61V3LpKi4EcEU-10"><mxGeometry width="200" height="30" as="geometry"/></mxCell><mxCell id="78bXQyf61V3LpKi4EcEU-12" value="&lt;div style='width: 197.0px;height:auto;word-break: break-word;'&gt;&lt;div align=&quot;left&quot;&gt;&lt;span style=&quot;font-family: Arial; font-size: 12px; font-weight: normal; text-decoration: none; line-height: 14px;&quot;&gt;table name&lt;/span&gt;&lt;/div&gt;&lt;div align=&quot;left&quot;&gt;&lt;span style=&quot;font-family: Arial; font-size: 12px; font-weight: normal; text-decoration: none; line-height: 14px;&quot;&gt;data vault stereotype&lt;/span&gt;&lt;/div&gt;&lt;div align=&quot;left&quot;&gt;&lt;span style=&quot;font-family: Arial; font-size: 12px; font-weight: normal; text-decoration: none; line-height: 14px;&quot;&gt;key column name (hub, link only)&lt;/span&gt;&lt;/div&gt;&lt;div align=&quot;left&quot;&gt;&lt;span style=&quot;font-family: Arial; font-size: 12px; font-weight: normal; text-decoration: none; line-height: 14px;&quot;&gt;dif hash column name (sats only)&lt;/span&gt;&lt;/div&gt;&lt;div align=&quot;left&quot;&gt;&lt;span style=&quot;font-family: Arial; font-size: 12px; font-weight: normal; text-decoration: none; line-height: 14px;&quot;&gt;driving key list (sats on links only)&lt;/span&gt;&lt;/div&gt;&lt;div align=&quot;left&quot;&gt;&lt;span style=&quot;font-family: Arial; font-size: 12px; font-weight: normal; text-decoration: none; line-height: 14px;&quot;&gt;...&lt;/span&gt;&lt;/div&gt;&lt;/div&gt;" style="shape=rect;shadow=0;strokeWidth=2;fillColor=#FFFFFF;strokeColor=#000000;opacity=100.0;html=1;nl2Br=0;verticalAlign=top;align=left;spacingLeft=0.0;spacingRight=0;spacingTop=-5.0;spacingBottom=2;whiteSpace=wrap;gliffyId=15;" vertex="1" parent="78bXQyf61V3LpKi4EcEU-10"><mxGeometry y="30" width="200" height="90" as="geometry"/></mxCell><mxCell id="78bXQyf61V3LpKi4EcEU-13" style="shape=rect;verticalAlign=top;align=left;fontSize=12;fontFamily=Helvetica;shadow=0;strokeWidth=2;fillColor=#FFFFFF;strokeColor=#000000;opacity=100.0;gliffyId=26;" vertex="1" parent="1"><mxGeometry x="500" y="10" width="200" height="120" as="geometry"/></mxCell><mxCell id="78bXQyf61V3LpKi4EcEU-14" value="&lt;div style='width: 197.0px;height:auto;word-break: break-word;'&gt;&lt;div align=&quot;center&quot;&gt;&lt;span style=&quot;font-family: Arial; font-size: 12px; font-weight: normal; text-decoration: underline; line-height: 14px;&quot;&gt;field to data vault table mapping&lt;/span&gt;&lt;/div&gt;&lt;/div&gt;" style="shape=rect;shadow=0;strokeWidth=2;fillColor=#FFFFFF;strokeColor=#000000;opacity=100.0;html=1;nl2Br=0;verticalAlign=top;align=center;spacingLeft=6.0;spacingRight=6;spacingTop=1.0;spacingBottom=8;whiteSpace=wrap;gliffyId=27;" vertex="1" parent="78bXQyf61V3LpKi4EcEU-13"><mxGeometry width="200" height="30" as="geometry"/></mxCell><mxCell id="78bXQyf61V3LpKi4EcEU-15" value="&lt;div style='width: 197.0px;height:auto;word-break: break-word;'&gt;&lt;div align=&quot;left&quot;&gt;&lt;span style=&quot;font-family: Arial; font-size: 12px; font-weight: normal; text-decoration: none; line-height: 14px;&quot;&gt;target table&lt;/span&gt;&lt;/div&gt;&lt;div align=&quot;left&quot;&gt;&lt;span style=&quot;font-family: Arial; font-size: 12px; font-weight: normal; text-decoration: none; line-height: 14px;&quot;&gt;target column name&lt;/span&gt;&lt;/div&gt;&lt;div align=&quot;left&quot;&gt;&lt;span style=&quot;font-family: Arial; font-size: 12px; font-weight: normal; text-decoration: none; line-height: 14px;&quot;&gt;target column type&lt;/span&gt;&lt;/div&gt;&lt;div align=&quot;left&quot;&gt;&lt;span style=&quot;font-family: Arial; font-size: 12px; font-weight: normal; text-decoration: none; line-height: 14px;&quot;&gt;key hash relevance and ordering&lt;/span&gt;&lt;/div&gt;&lt;div align=&quot;left&quot;&gt;&lt;span style=&quot;font-family: Arial; font-size: 12px; font-weight: normal; text-decoration: none; line-height: 14px;&quot;&gt;diff hash relevance&amp;nbsp;and ordering&lt;/span&gt;&lt;/div&gt;&lt;/div&gt;" style="shape=rect;shadow=0;strokeWidth=2;fillColor=#FFFFFF;strokeColor=#000000;opacity=100.0;html=1;nl2Br=0;verticalAlign=top;align=left;spacingLeft=0.0;spacingRight=0;spacingTop=-5.0;spacingBottom=2;whiteSpace=wrap;gliffyId=29;" vertex="1" parent="78bXQyf61V3LpKi4EcEU-13"><mxGeometry y="30" width="200" height="90" as="geometry"/></mxCell><mxCell id="78bXQyf61V3LpKi4EcEU-16" style="shape=rect;verticalAlign=top;align=left;fontSize=12;fontFamily=Helvetica;shadow=0;strokeWidth=2;fillColor=#FFFFFF;strokeColor=#000000;opacity=100.0;gliffyId=33;" vertex="1" parent="1"><mxGeometry x="530" y="403" width="140" height="62" as="geometry"/></mxCell><mxCell id="78bXQyf61V3LpKi4EcEU-17" value="&lt;div style='width: 137.0px;height:auto;word-break: break-word;'&gt;&lt;div align=&quot;center&quot;&gt;&lt;span style=&quot;font-family: Arial; font-size: 12px; font-weight: normal; text-decoration: underline; line-height: 14px;&quot;&gt;data vault table parent relation&lt;/span&gt;&lt;/div&gt;&lt;/div&gt;" style="shape=rect;shadow=0;strokeWidth=2;fillColor=#FFFFFF;strokeColor=#000000;opacity=100.0;html=1;nl2Br=0;verticalAlign=top;align=center;spacingLeft=6.0;spacingRight=6;spacingTop=1.0;spacingBottom=8;whiteSpace=wrap;gliffyId=34;" vertex="1" parent="78bXQyf61V3LpKi4EcEU-16"><mxGeometry width="140" height="44" as="geometry"/></mxCell><mxCell id="78bXQyf61V3LpKi4EcEU-18" value="&lt;div style='width: 137.0px;height:auto;word-break: break-word;'&gt;&lt;div align=&quot;left&quot;&gt;&lt;span style=&quot;font-family: Arial; font-size: 12px; font-weight: normal; text-decoration: none; line-height: 14px;&quot; class=&quot;&quot;&gt;&amp;nbsp;&lt;/span&gt;&lt;/div&gt;&lt;/div&gt;" style="shape=rect;shadow=0;strokeWidth=2;fillColor=#FFFFFF;strokeColor=#000000;opacity=100.0;html=1;nl2Br=0;verticalAlign=top;align=left;spacingLeft=0.0;spacingRight=0;spacingTop=-5.0;spacingBottom=2;whiteSpace=wrap;gliffyId=36;" vertex="1" parent="78bXQyf61V3LpKi4EcEU-16"><mxGeometry y="44" width="140" height="18" as="geometry"/></mxCell><mxCell id="78bXQyf61V3LpKi4EcEU-19" style="shape=rect;verticalAlign=top;align=left;fontSize=12;fontFamily=Helvetica;shadow=0;strokeWidth=2;fillColor=#FFFFFF;strokeColor=#000000;opacity=100.0;gliffyId=39;" vertex="1" parent="1"><mxGeometry x="700" y="150" width="80" height="55" as="geometry"/></mxCell><mxCell id="78bXQyf61V3LpKi4EcEU-20" value="&lt;div style='width: 77.0px;height:auto;word-break: break-word;'&gt;&lt;div align=&quot;center&quot;&gt;&lt;span style=&quot;font-family: Arial; font-size: 12px; font-weight: normal; text-decoration: underline; line-height: 14px;&quot;&gt;field group&amp;nbsp;&lt;/span&gt;&lt;/div&gt;&lt;/div&gt;" style="shape=rect;shadow=0;strokeWidth=2;fillColor=#FFFFFF;strokeColor=#000000;opacity=100.0;html=1;nl2Br=0;verticalAlign=top;align=center;spacingLeft=6.0;spacingRight=6;spacingTop=1.0;spacingBottom=8;whiteSpace=wrap;gliffyId=40;" vertex="1" parent="78bXQyf61V3LpKi4EcEU-19"><mxGeometry width="80" height="30" as="geometry"/></mxCell><mxCell id="78bXQyf61V3LpKi4EcEU-21" value="&lt;div style='width: 77.0px;height:auto;word-break: break-word;'&gt;&lt;div align=&quot;left&quot;&gt;&lt;span style=&quot;font-family: Arial; font-size: 12px; font-weight: normal; text-decoration: none; line-height: 14px;&quot; class=&quot;&quot;&gt;name&lt;/span&gt;&lt;/div&gt;&lt;/div&gt;" style="shape=rect;shadow=0;strokeWidth=2;fillColor=#FFFFFF;strokeColor=#000000;opacity=100.0;html=1;nl2Br=0;verticalAlign=top;align=left;spacingLeft=0.0;spacingRight=0;spacingTop=-5.0;spacingBottom=2;whiteSpace=wrap;gliffyId=42;" vertex="1" parent="78bXQyf61V3LpKi4EcEU-19"><mxGeometry y="30" width="80" height="25" as="geometry"/></mxCell><mxCell id="78bXQyf61V3LpKi4EcEU-22" style="shape=rect;verticalAlign=top;align=left;fontSize=12;fontFamily=Helvetica;shadow=0;strokeWidth=2;fillColor=#FFFFFF;strokeColor=#000000;opacity=100.0;gliffyId=48;" vertex="1" parent="1"><mxGeometry x="760" y="310" width="120" height="55" as="geometry"/></mxCell><mxCell id="78bXQyf61V3LpKi4EcEU-23" value="&lt;div style='width: 117.0px;height:auto;word-break: break-word;'&gt;&lt;div align=&quot;center&quot;&gt;&lt;span style=&quot;font-family: Arial; font-size: 12px; font-weight: normal; text-decoration: underline; line-height: 14px;&quot;&gt;recursive_parent_&lt;/span&gt;&lt;/div&gt;&lt;/div&gt;" style="shape=rect;shadow=0;strokeWidth=2;fillColor=#FFFFFF;strokeColor=#000000;opacity=100.0;html=1;nl2Br=0;verticalAlign=top;align=center;spacingLeft=6.0;spacingRight=6;spacingTop=1.0;spacingBottom=8;whiteSpace=wrap;gliffyId=49;" vertex="1" parent="78bXQyf61V3LpKi4EcEU-22"><mxGeometry width="120" height="30" as="geometry"/></mxCell><mxCell id="78bXQyf61V3LpKi4EcEU-24" value="&lt;div style='width: 117.0px;height:auto;word-break: break-word;'&gt;&lt;div align=&quot;left&quot;&gt;&lt;span style=&quot;font-family: Arial; font-size: 12px; font-weight: normal; text-decoration: none; line-height: 14px;&quot;&gt;name of recursion&lt;/span&gt;&lt;/div&gt;&lt;/div&gt;" style="shape=rect;shadow=0;strokeWidth=2;fillColor=#FFFFFF;strokeColor=#000000;opacity=100.0;html=1;nl2Br=0;verticalAlign=top;align=left;spacingLeft=0.0;spacingRight=0;spacingTop=-5.0;spacingBottom=2;whiteSpace=wrap;gliffyId=51;" vertex="1" parent="78bXQyf61V3LpKi4EcEU-22"><mxGeometry y="30" width="120" height="25" as="geometry"/></mxCell><mxCell id="78bXQyf61V3LpKi4EcEU-25" style="shape=filledEdge;strokeWidth=1;strokeColor=#000000;fillColor=none;startArrow=none;startFill=0;startSize=6;endArrow=diamond;endFill=1;endSize=12;rounded=0;gliffyId=68;edgeStyle=orthogonalEdgeStyle;" edge="1" parent="1" source="78bXQyf61V3LpKi4EcEU-1" target="78bXQyf61V3LpKi4EcEU-4"><mxGeometry width="100" height="100" relative="1" as="geometry"><Array as="points"><mxPoint x="200" y="427"/><mxPoint x="61" y="427"/><mxPoint x="61" y="107"/></Array></mxGeometry></mxCell><mxCell id="78bXQyf61V3LpKi4EcEU-26" style="shape=filledEdge;strokeWidth=1;strokeColor=#000000;fillColor=none;startArrow=none;startFill=0;startSize=6;endArrow=diamond;endFill=1;endSize=12;rounded=0;gliffyId=24;edgeStyle=orthogonalEdgeStyle;" edge="1" parent="1" source="78bXQyf61V3LpKi4EcEU-7" target="78bXQyf61V3LpKi4EcEU-4"><mxGeometry width="100" height="100" relative="1" as="geometry"><Array as="points"><mxPoint x="240.00155639648438" y="69.5"/><mxPoint x="213.33438110351562" y="69.5"/><mxPoint x="186.66717529296875" y="69.5"/><mxPoint x="160" y="69.5"/></Array></mxGeometry></mxCell><mxCell id="78bXQyf61V3LpKi4EcEU-27" style="shape=filledEdge;strokeWidth=1;strokeColor=#000000;fillColor=none;startArrow=none;startFill=0;startSize=6;endArrow=diamond;endFill=1;endSize=12;rounded=0;gliffyId=31;edgeStyle=orthogonalEdgeStyle;" edge="1" parent="1" source="78bXQyf61V3LpKi4EcEU-13" target="78bXQyf61V3LpKi4EcEU-7"><mxGeometry width="100" height="100" relative="1" as="geometry"><Array as="points"><mxPoint x="500" y="70"/><mxPoint x="480" y="70"/><mxPoint x="460" y="70"/><mxPoint x="440" y="70"/></Array></mxGeometry></mxCell><mxCell id="78bXQyf61V3LpKi4EcEU-28" style="shape=filledEdge;strokeWidth=1;strokeColor=#000000;fillColor=none;startArrow=none;startFill=0;startSize=6;endArrow=diamond;endFill=1;endSize=12;rounded=0;gliffyId=38;edgeStyle=orthogonalEdgeStyle;" edge="1" parent="1" source="78bXQyf61V3LpKi4EcEU-16" target="78bXQyf61V3LpKi4EcEU-10"><mxGeometry width="100" height="100" relative="1" as="geometry"><Array as="points"><mxPoint x="600" y="403"/><mxPoint x="600" y="381.1666564941406"/><mxPoint x="600" y="359.3333435058594"/><mxPoint x="600" y="337.5"/></Array></mxGeometry></mxCell><mxCell id="78bXQyf61V3LpKi4EcEU-29" style="shape=filledEdge;strokeWidth=1;strokeColor=#000000;fillColor=none;startArrow=none;startFill=0;startSize=6;endArrow=none;endFill=0;endSize=6;rounded=0;gliffyId=25;exitX=0.5;exitY=1.0;exitPerimeter=0;entryX=0.0;entryY=0.5;entryPerimeter=0;edgeStyle=orthogonalEdgeStyle;" edge="1" parent="1" source="78bXQyf61V3LpKi4EcEU-4" target="78bXQyf61V3LpKi4EcEU-10"><mxGeometry width="100" height="100" relative="1" as="geometry"><Array as="points"><mxPoint x="90" y="107"/><mxPoint x="90" y="277.5"/><mxPoint x="500" y="277.5"/></Array></mxGeometry></mxCell><mxCell id="78bXQyf61V3LpKi4EcEU-30" style="shape=filledEdge;strokeWidth=1;strokeColor=#000000;fillColor=none;startArrow=none;startFill=0;startSize=6;endArrow=none;endFill=0;endSize=6;rounded=0;html=1;nl2Br=0;gliffyId=70;exitX=1.0;exitY=0.5;exitPerimeter=0;entryX=0.0;entryY=0.862500011920929;entryPerimeter=0;edgeStyle=orthogonalEdgeStyle;" edge="1" parent="1" source="78bXQyf61V3LpKi4EcEU-1" target="78bXQyf61V3LpKi4EcEU-10"><mxGeometry width="100" height="100" relative="1" as="geometry"><Array as="points"><mxPoint x="360" y="427"/><mxPoint x="430" y="427"/><mxPoint x="430" y="321"/><mxPoint x="500" y="321"/></Array></mxGeometry></mxCell><mxCell id="78bXQyf61V3LpKi4EcEU-31" value="&lt;div style='width: 66.390594px;height:auto;word-break: break-word;'&gt;&lt;div align=&quot;center&quot;&gt;&lt;span style=&quot;font-family: Arial; font-size: 12px; line-height: 14px;&quot;&gt;applied on&lt;/span&gt;&lt;/div&gt;&lt;/div&gt;" style="text;html=1;nl2Br=0;labelBackgroundColor=#FFFFFF;html=1;nl2Br=0;verticalAlign=middle;align=center;spacingLeft=0.0;spacingRight=0;gliffyId=71;" vertex="1" parent="78bXQyf61V3LpKi4EcEU-30"><mxGeometry x="-0.4574898785425101" relative="1" as="geometry"><mxPoint as="offset"/></mxGeometry></mxCell><mxCell id="78bXQyf61V3LpKi4EcEU-32" style="shape=filledEdge;strokeWidth=1;strokeColor=#000000;fillColor=none;startArrow=none;startFill=0;startSize=6;endArrow=none;endFill=0;endSize=6;rounded=0;html=1;nl2Br=0;gliffyId=72;exitX=0.550000011920929;exitY=0.0;exitPerimeter=0;edgeStyle=orthogonalEdgeStyle;" edge="1" parent="1" source="78bXQyf61V3LpKi4EcEU-1"><mxGeometry width="100" height="100" relative="1" as="geometry"><mxPoint x="290" y="110" as="targetPoint"/><Array as="points"><mxPoint x="288" y="389"/><mxPoint x="288" y="249.5"/><mxPoint x="290" y="249.5"/></Array></mxGeometry></mxCell><mxCell id="78bXQyf61V3LpKi4EcEU-33" value="&lt;div style='width: 83.0469px;height:auto;word-break: break-word;'&gt;&lt;div align=&quot;center&quot;&gt;&lt;span style=&quot;font-family: Arial; font-size: 12px; line-height: 14px;&quot;&gt;partitioned by&lt;/span&gt;&lt;/div&gt;&lt;/div&gt;" style="text;html=1;nl2Br=0;labelBackgroundColor=#FFFFFF;html=1;nl2Br=0;verticalAlign=middle;align=center;spacingLeft=0.0;spacingRight=0;gliffyId=73;" vertex="1" parent="78bXQyf61V3LpKi4EcEU-32"><mxGeometry x="-0.819718309859155" relative="1" as="geometry"><mxPoint as="offset"/></mxGeometry></mxCell><mxCell id="78bXQyf61V3LpKi4EcEU-34" style="shape=filledEdge;strokeWidth=1;strokeColor=#000000;fillColor=none;startArrow=none;startFill=0;startSize=6;endArrow=none;endFill=0;endSize=6;rounded=0;gliffyId=32;exitX=0.5;exitY=0.0;exitPerimeter=0;entryX=0.5;entryY=1.0;entryPerimeter=0;edgeStyle=orthogonalEdgeStyle;" edge="1" parent="1" source="78bXQyf61V3LpKi4EcEU-10" target="78bXQyf61V3LpKi4EcEU-13"><mxGeometry width="100" height="100" relative="1" as="geometry"><Array as="points"><mxPoint x="600" y="217.5"/><mxPoint x="600" y="188.33331298828125"/><mxPoint x="600" y="159.16668701171875"/><mxPoint x="600" y="130"/></Array></mxGeometry></mxCell><mxCell id="78bXQyf61V3LpKi4EcEU-35" style="shape=filledEdge;strokeWidth=1;strokeColor=#000000;fillColor=none;startArrow=none;startFill=0;startSize=6;endArrow=none;endFill=0;endSize=6;rounded=0;gliffyId=74;exitX=0.20000000298023224;exitY=0.0;exitPerimeter=0;entryX=0.3050000071525574;entryY=1.0;entryPerimeter=0;edgeStyle=orthogonalEdgeStyle;" edge="1" parent="1" source="78bXQyf61V3LpKi4EcEU-16" target="78bXQyf61V3LpKi4EcEU-10"><mxGeometry width="100" height="100" relative="1" as="geometry"><Array as="points"><mxPoint x="561" y="403.06866455078125"/><mxPoint x="561" y="381.2124328613281"/><mxPoint x="561" y="359.3562316894531"/><mxPoint x="561" y="337.5"/></Array></mxGeometry></mxCell><mxCell id="78bXQyf61V3LpKi4EcEU-36" style="shape=filledEdge;strokeWidth=1;strokeColor=#000000;fillColor=none;startArrow=none;startFill=0;startSize=6;endArrow=none;endFill=0;endSize=6;rounded=0;html=1;nl2Br=0;gliffyId=44;exitX=1.0;exitY=0.5;exitPerimeter=0;entryX=0.5;entryY=1.0;entryPerimeter=0;edgeStyle=orthogonalEdgeStyle;" edge="1" parent="1" source="78bXQyf61V3LpKi4EcEU-10" target="78bXQyf61V3LpKi4EcEU-19"><mxGeometry width="100" height="100" relative="1" as="geometry"><Array as="points"><mxPoint x="700" y="277.5"/><mxPoint x="740" y="277.5"/><mxPoint x="740" y="205"/></Array></mxGeometry></mxCell><mxCell id="78bXQyf61V3LpKi4EcEU-37" value="&lt;div style='width: 59.0312px;height:auto;word-break: break-word;'&gt;&lt;div align=&quot;center&quot;&gt;&lt;span style=&quot;font-family: Arial; font-size: 12px; line-height: 14px;&quot;&gt;limited to&lt;/span&gt;&lt;/div&gt;&lt;/div&gt;" style="text;html=1;nl2Br=0;labelBackgroundColor=#FFFFFF;html=1;nl2Br=0;verticalAlign=middle;align=center;spacingLeft=0.0;spacingRight=0;gliffyId=45;" vertex="1" parent="78bXQyf61V3LpKi4EcEU-36"><mxGeometry relative="1" as="geometry"><mxPoint as="offset"/></mxGeometry></mxCell><mxCell id="78bXQyf61V3LpKi4EcEU-38" style="shape=filledEdge;strokeWidth=1;strokeColor=#000000;fillColor=none;startArrow=none;startFill=0;startSize=6;endArrow=none;endFill=0;endSize=6;rounded=0;html=1;nl2Br=0;gliffyId=46;exitX=0.5;exitY=0.0;exitPerimeter=0;entryX=1.0;entryY=0.6067415475845337;entryPerimeter=0;edgeStyle=orthogonalEdgeStyle;" edge="1" parent="1" source="78bXQyf61V3LpKi4EcEU-19" target="78bXQyf61V3LpKi4EcEU-13"><mxGeometry width="100" height="100" relative="1" as="geometry"><Array as="points"><mxPoint x="740" y="150"/><mxPoint x="740" y="82.8089599609375"/><mxPoint x="700" y="82.8089599609375"/></Array></mxGeometry></mxCell><mxCell id="78bXQyf61V3LpKi4EcEU-39" value="&lt;div style='width: 66.390594px;height:auto;word-break: break-word;'&gt;&lt;div align=&quot;center&quot;&gt;&lt;span style=&quot;font-family: Arial; font-size: 12px; line-height: 14px;&quot;&gt;belongs to&lt;/span&gt;&lt;/div&gt;&lt;/div&gt;" style="text;html=1;nl2Br=0;labelBackgroundColor=#FFFFFF;html=1;nl2Br=0;verticalAlign=middle;align=center;spacingLeft=0.0;spacingRight=0;gliffyId=47;" vertex="1" parent="78bXQyf61V3LpKi4EcEU-38"><mxGeometry x="0.04486373165618396" relative="1" as="geometry"><mxPoint as="offset"/></mxGeometry></mxCell><mxCell id="78bXQyf61V3LpKi4EcEU-40" style="shape=filledEdge;strokeWidth=1;strokeColor=#000000;fillColor=none;startArrow=none;startFill=0;startSize=6;endArrow=none;endFill=0;endSize=6;rounded=0;html=1;nl2Br=0;gliffyId=53;exitX=1.0;exitY=0.5;exitPerimeter=0;entryX=0.5;entryY=1.0;entryPerimeter=0;edgeStyle=orthogonalEdgeStyle;" edge="1" parent="1" source="78bXQyf61V3LpKi4EcEU-16" target="78bXQyf61V3LpKi4EcEU-22"><mxGeometry width="100" height="100" relative="1" as="geometry"><Array as="points"><mxPoint x="670" y="434"/><mxPoint x="820" y="434"/><mxPoint x="820" y="365"/></Array></mxGeometry></mxCell><mxCell id="78bXQyf61V3LpKi4EcEU-41" value="&lt;div style='width: 151.75px;height:auto;word-break: break-word;'&gt;&lt;div align=&quot;center&quot;&gt;&lt;span style=&quot;font-family: Arial; font-size: 12px; line-height: 14px;&quot;&gt;only for link parent relation&lt;/span&gt;&lt;/div&gt;&lt;/div&gt;" style="text;html=1;nl2Br=0;labelBackgroundColor=#FFFFFF;html=1;nl2Br=0;verticalAlign=middle;align=center;spacingLeft=0.0;spacingRight=0;gliffyId=54;" vertex="1" parent="78bXQyf61V3LpKi4EcEU-40"><mxGeometry x="-0.04109589041095896" relative="1" as="geometry"><mxPoint as="offset"/></mxGeometry></mxCell><mxCell id="78bXQyf61V3LpKi4EcEU-42" style="shape=filledEdge;strokeWidth=1;strokeColor=#000000;fillColor=none;startArrow=none;startFill=0;startSize=6;endArrow=none;endFill=0;endSize=6;rounded=0;html=1;nl2Br=0;gliffyId=55;exitX=1.0;exitY=0.3258427083492279;exitPerimeter=0;entryX=0.5;entryY=0.0;entryPerimeter=0;edgeStyle=orthogonalEdgeStyle;" edge="1" parent="1" source="78bXQyf61V3LpKi4EcEU-13" target="78bXQyf61V3LpKi4EcEU-22"><mxGeometry width="100" height="100" relative="1" as="geometry"><Array as="points"><mxPoint x="700" y="49.10113525390625"/><mxPoint x="820" y="49.10113525390625"/><mxPoint x="820" y="310"/></Array></mxGeometry></mxCell><mxCell id="78bXQyf61V3LpKi4EcEU-43" value="&lt;div style='width: 109.7188px;height:auto;word-break: break-word;'&gt;&lt;div align=&quot;center&quot;&gt;&lt;span style=&quot;font-family: Arial; font-size: 12px; line-height: 14px;&quot;&gt;recursion mapping&lt;/span&gt;&lt;/div&gt;&lt;/div&gt;" style="text;html=1;nl2Br=0;labelBackgroundColor=#FFFFFF;html=1;nl2Br=0;verticalAlign=middle;align=center;spacingLeft=0.0;spacingRight=0;gliffyId=56;" vertex="1" parent="78bXQyf61V3LpKi4EcEU-42"><mxGeometry x="-0.48017699115044243" relative="1" as="geometry"><mxPoint as="offset"/></mxGeometry></mxCell></root></mxGraphModel></diagram></mxfile>